<mxfile host="app.diagrams.net" agent="Mozilla/5.0 (Macintosh; Intel Mac OS X 10_15_7) AppleWebKit/537.36 (KHTML, like Gecko) Chrome/128.0.0.0 Safari/537.36" version="24.8.3">
  <diagram name="第 1 页" id="-rcKaKN9AYwUOra4wo7v">
    <mxGraphModel dx="2901" dy="1043" grid="1" gridSize="10" guides="1" tooltips="1" connect="1" arrows="1" fold="1" page="1" pageScale="1" pageWidth="827" pageHeight="1169" math="0" shadow="0">
      <root>
        <mxCell id="0" />
        <mxCell id="1" parent="0" />
        <mxCell id="iip_FYa3BxoyAO8BdrTa-4" value="" style="edgeStyle=orthogonalEdgeStyle;rounded=0;orthogonalLoop=1;jettySize=auto;html=1;" edge="1" parent="1" source="iip_FYa3BxoyAO8BdrTa-5">
          <mxGeometry relative="1" as="geometry">
            <mxPoint x="280" y="230" as="targetPoint" />
          </mxGeometry>
        </mxCell>
        <mxCell id="iip_FYa3BxoyAO8BdrTa-5" value="逾期利息计算" style="ellipse;whiteSpace=wrap;html=1;fillColor=#66FFB3;" vertex="1" parent="1">
          <mxGeometry x="220" y="70" width="120" height="80" as="geometry" />
        </mxCell>
        <mxCell id="iip_FYa3BxoyAO8BdrTa-6" value="" style="edgeStyle=orthogonalEdgeStyle;rounded=0;orthogonalLoop=1;jettySize=auto;html=1;" edge="1" parent="1">
          <mxGeometry relative="1" as="geometry">
            <mxPoint x="280" y="290" as="sourcePoint" />
            <mxPoint x="280" y="370" as="targetPoint" />
          </mxGeometry>
        </mxCell>
        <mxCell id="iip_FYa3BxoyAO8BdrTa-32" value="否" style="edgeLabel;html=1;align=center;verticalAlign=middle;resizable=0;points=[];" vertex="1" connectable="0" parent="iip_FYa3BxoyAO8BdrTa-6">
          <mxGeometry x="-0.25" y="1" relative="1" as="geometry">
            <mxPoint as="offset" />
          </mxGeometry>
        </mxCell>
        <mxCell id="iip_FYa3BxoyAO8BdrTa-10" value="" style="edgeStyle=orthogonalEdgeStyle;rounded=0;orthogonalLoop=1;jettySize=auto;html=1;" edge="1" parent="1">
          <mxGeometry relative="1" as="geometry">
            <mxPoint x="280" y="570" as="sourcePoint" />
            <mxPoint x="280" y="650" as="targetPoint" />
          </mxGeometry>
        </mxCell>
        <mxCell id="iip_FYa3BxoyAO8BdrTa-12" value="" style="edgeStyle=orthogonalEdgeStyle;rounded=0;orthogonalLoop=1;jettySize=auto;html=1;" edge="1" parent="1" target="iip_FYa3BxoyAO8BdrTa-15">
          <mxGeometry relative="1" as="geometry">
            <mxPoint x="280" y="710" as="sourcePoint" />
          </mxGeometry>
        </mxCell>
        <mxCell id="iip_FYa3BxoyAO8BdrTa-58" value="否" style="edgeLabel;html=1;align=center;verticalAlign=middle;resizable=0;points=[];" vertex="1" connectable="0" parent="iip_FYa3BxoyAO8BdrTa-12">
          <mxGeometry x="0.0062" y="2" relative="1" as="geometry">
            <mxPoint y="1" as="offset" />
          </mxGeometry>
        </mxCell>
        <mxCell id="iip_FYa3BxoyAO8BdrTa-14" value="" style="edgeStyle=orthogonalEdgeStyle;rounded=0;orthogonalLoop=1;jettySize=auto;html=1;" edge="1" parent="1" source="iip_FYa3BxoyAO8BdrTa-15" target="iip_FYa3BxoyAO8BdrTa-16">
          <mxGeometry relative="1" as="geometry" />
        </mxCell>
        <mxCell id="iip_FYa3BxoyAO8BdrTa-15" value="本期新逻辑：&lt;br&gt;&lt;div&gt;&lt;span style=&quot;background-color: initial;&quot;&gt;总&lt;/span&gt;&lt;span style=&quot;background-color: initial;&quot;&gt;逾期利息=历史阶段的逾期利息+当前阶段的逾期利息&lt;/span&gt;&lt;/div&gt;" style="rounded=1;whiteSpace=wrap;html=1;" vertex="1" parent="1">
          <mxGeometry x="210" y="770" width="140" height="60" as="geometry" />
        </mxCell>
        <mxCell id="iip_FYa3BxoyAO8BdrTa-16" value="计算结束" style="ellipse;whiteSpace=wrap;html=1;fillColor=#FF0000;" vertex="1" parent="1">
          <mxGeometry x="220" y="900" width="120" height="80" as="geometry" />
        </mxCell>
        <mxCell id="iip_FYa3BxoyAO8BdrTa-35" value="" style="edgeStyle=orthogonalEdgeStyle;rounded=0;orthogonalLoop=1;jettySize=auto;html=1;" edge="1" parent="1" source="iip_FYa3BxoyAO8BdrTa-33" target="iip_FYa3BxoyAO8BdrTa-34">
          <mxGeometry relative="1" as="geometry" />
        </mxCell>
        <mxCell id="iip_FYa3BxoyAO8BdrTa-33" value="是否有特殊资方实现类" style="rhombus;whiteSpace=wrap;html=1;" vertex="1" parent="1">
          <mxGeometry x="240" y="230" width="80" height="80" as="geometry" />
        </mxCell>
        <mxCell id="iip_FYa3BxoyAO8BdrTa-37" style="edgeStyle=orthogonalEdgeStyle;rounded=0;orthogonalLoop=1;jettySize=auto;html=1;entryX=0;entryY=0.5;entryDx=0;entryDy=0;" edge="1" parent="1" source="iip_FYa3BxoyAO8BdrTa-34" target="iip_FYa3BxoyAO8BdrTa-16">
          <mxGeometry relative="1" as="geometry">
            <mxPoint x="140" y="940" as="targetPoint" />
            <Array as="points">
              <mxPoint x="130" y="940" />
            </Array>
          </mxGeometry>
        </mxCell>
        <mxCell id="iip_FYa3BxoyAO8BdrTa-34" value="特殊资方实现类" style="rounded=1;whiteSpace=wrap;html=1;" vertex="1" parent="1">
          <mxGeometry x="80" y="240" width="120" height="60" as="geometry" />
        </mxCell>
        <mxCell id="iip_FYa3BxoyAO8BdrTa-36" value="是" style="text;html=1;align=center;verticalAlign=middle;resizable=0;points=[];autosize=1;strokeColor=none;fillColor=none;" vertex="1" parent="1">
          <mxGeometry x="200" y="248" width="40" height="30" as="geometry" />
        </mxCell>
        <mxCell id="iip_FYa3BxoyAO8BdrTa-39" value="" style="edgeStyle=orthogonalEdgeStyle;rounded=0;orthogonalLoop=1;jettySize=auto;html=1;" edge="1" parent="1" target="iip_FYa3BxoyAO8BdrTa-38">
          <mxGeometry relative="1" as="geometry">
            <mxPoint x="280" y="430" as="sourcePoint" />
            <mxPoint x="280" y="510" as="targetPoint" />
          </mxGeometry>
        </mxCell>
        <mxCell id="iip_FYa3BxoyAO8BdrTa-42" value="" style="edgeStyle=orthogonalEdgeStyle;rounded=0;orthogonalLoop=1;jettySize=auto;html=1;" edge="1" parent="1" source="iip_FYa3BxoyAO8BdrTa-38" target="iip_FYa3BxoyAO8BdrTa-41">
          <mxGeometry relative="1" as="geometry" />
        </mxCell>
        <mxCell id="iip_FYa3BxoyAO8BdrTa-43" value="是" style="edgeLabel;html=1;align=center;verticalAlign=middle;resizable=0;points=[];" vertex="1" connectable="0" parent="iip_FYa3BxoyAO8BdrTa-42">
          <mxGeometry x="-0.1" y="1" relative="1" as="geometry">
            <mxPoint as="offset" />
          </mxGeometry>
        </mxCell>
        <mxCell id="iip_FYa3BxoyAO8BdrTa-51" value="" style="edgeStyle=orthogonalEdgeStyle;rounded=0;orthogonalLoop=1;jettySize=auto;html=1;" edge="1" parent="1" source="iip_FYa3BxoyAO8BdrTa-38" target="iip_FYa3BxoyAO8BdrTa-49">
          <mxGeometry relative="1" as="geometry" />
        </mxCell>
        <mxCell id="iip_FYa3BxoyAO8BdrTa-38" value="是否是随心花" style="rhombus;whiteSpace=wrap;html=1;" vertex="1" parent="1">
          <mxGeometry x="240" y="370" width="80" height="80" as="geometry" />
        </mxCell>
        <mxCell id="iip_FYa3BxoyAO8BdrTa-44" style="edgeStyle=orthogonalEdgeStyle;rounded=0;orthogonalLoop=1;jettySize=auto;html=1;entryX=1;entryY=0.5;entryDx=0;entryDy=0;" edge="1" parent="1" source="iip_FYa3BxoyAO8BdrTa-41" target="iip_FYa3BxoyAO8BdrTa-16">
          <mxGeometry relative="1" as="geometry">
            <Array as="points">
              <mxPoint x="450" y="940" />
            </Array>
          </mxGeometry>
        </mxCell>
        <mxCell id="iip_FYa3BxoyAO8BdrTa-41" value="随心花逻辑" style="whiteSpace=wrap;html=1;" vertex="1" parent="1">
          <mxGeometry x="390" y="380" width="120" height="60" as="geometry" />
        </mxCell>
        <mxCell id="iip_FYa3BxoyAO8BdrTa-46" value="" style="edgeStyle=orthogonalEdgeStyle;rounded=0;orthogonalLoop=1;jettySize=auto;html=1;" edge="1" parent="1" target="iip_FYa3BxoyAO8BdrTa-49">
          <mxGeometry relative="1" as="geometry">
            <mxPoint x="280" y="560" as="sourcePoint" />
            <mxPoint x="280" y="640" as="targetPoint" />
          </mxGeometry>
        </mxCell>
        <mxCell id="iip_FYa3BxoyAO8BdrTa-47" value="" style="edgeStyle=orthogonalEdgeStyle;rounded=0;orthogonalLoop=1;jettySize=auto;html=1;" edge="1" parent="1" source="iip_FYa3BxoyAO8BdrTa-49" target="iip_FYa3BxoyAO8BdrTa-50">
          <mxGeometry relative="1" as="geometry" />
        </mxCell>
        <mxCell id="iip_FYa3BxoyAO8BdrTa-48" value="是" style="edgeLabel;html=1;align=center;verticalAlign=middle;resizable=0;points=[];" vertex="1" connectable="0" parent="iip_FYa3BxoyAO8BdrTa-47">
          <mxGeometry x="-0.1" y="1" relative="1" as="geometry">
            <mxPoint as="offset" />
          </mxGeometry>
        </mxCell>
        <mxCell id="iip_FYa3BxoyAO8BdrTa-49" value="是否逾期利息取资方" style="rhombus;whiteSpace=wrap;html=1;" vertex="1" parent="1">
          <mxGeometry x="240" y="500" width="80" height="80" as="geometry" />
        </mxCell>
        <mxCell id="iip_FYa3BxoyAO8BdrTa-52" style="edgeStyle=orthogonalEdgeStyle;rounded=0;orthogonalLoop=1;jettySize=auto;html=1;exitX=0.5;exitY=1;exitDx=0;exitDy=0;entryX=1;entryY=0.5;entryDx=0;entryDy=0;" edge="1" parent="1" source="iip_FYa3BxoyAO8BdrTa-50" target="iip_FYa3BxoyAO8BdrTa-16">
          <mxGeometry relative="1" as="geometry">
            <mxPoint x="450" y="730" as="targetPoint" />
            <Array as="points">
              <mxPoint x="530" y="940" />
            </Array>
          </mxGeometry>
        </mxCell>
        <mxCell id="iip_FYa3BxoyAO8BdrTa-50" value="取资方利息" style="whiteSpace=wrap;html=1;" vertex="1" parent="1">
          <mxGeometry x="470" y="510" width="120" height="60" as="geometry" />
        </mxCell>
        <mxCell id="iip_FYa3BxoyAO8BdrTa-55" value="" style="edgeStyle=orthogonalEdgeStyle;rounded=0;orthogonalLoop=1;jettySize=auto;html=1;" edge="1" parent="1" source="iip_FYa3BxoyAO8BdrTa-53" target="iip_FYa3BxoyAO8BdrTa-54">
          <mxGeometry relative="1" as="geometry" />
        </mxCell>
        <mxCell id="iip_FYa3BxoyAO8BdrTa-56" value="是" style="edgeLabel;html=1;align=center;verticalAlign=middle;resizable=0;points=[];" vertex="1" connectable="0" parent="iip_FYa3BxoyAO8BdrTa-55">
          <mxGeometry x="-0.3" relative="1" as="geometry">
            <mxPoint as="offset" />
          </mxGeometry>
        </mxCell>
        <mxCell id="iip_FYa3BxoyAO8BdrTa-53" value="是否是代偿后停止计息的资方" style="rhombus;whiteSpace=wrap;html=1;" vertex="1" parent="1">
          <mxGeometry x="240" y="650" width="80" height="80" as="geometry" />
        </mxCell>
        <mxCell id="iip_FYa3BxoyAO8BdrTa-57" style="edgeStyle=orthogonalEdgeStyle;rounded=0;orthogonalLoop=1;jettySize=auto;html=1;entryX=0;entryY=0.5;entryDx=0;entryDy=0;" edge="1" parent="1" source="iip_FYa3BxoyAO8BdrTa-54" target="iip_FYa3BxoyAO8BdrTa-16">
          <mxGeometry relative="1" as="geometry">
            <Array as="points">
              <mxPoint y="940" />
            </Array>
          </mxGeometry>
        </mxCell>
        <mxCell id="iip_FYa3BxoyAO8BdrTa-54" value="原计算逻辑=&lt;div&gt;初始本金*有效逾期天数*逾期日利率；&lt;/div&gt;&lt;div&gt;有效逾期天数=Math.min(计算日期-应还日，封顶逾期总费用对应的天数)&lt;/div&gt;" style="whiteSpace=wrap;html=1;" vertex="1" parent="1">
          <mxGeometry x="-110" y="660" width="220" height="60" as="geometry" />
        </mxCell>
      </root>
    </mxGraphModel>
  </diagram>
</mxfile>
